<?xml version="1.0" encoding="utf-8"?>
<!-- Generator: Adobe Illustrator 16.0.4, SVG Export Plug-In . SVG Version: 6.00 Build 0)  -->
<!DOCTYPE svg PUBLIC "-//W3C//DTD SVG 1.1//EN" "http://www.w3.org/Graphics/SVG/1.1/DTD/svg11.dtd">
<svg version="1.1" id="Layer_1" xmlns="http://www.w3.org/2000/svg" xmlns:xlink="http://www.w3.org/1999/xlink" x="0px" y="0px"
	 width="200px" height="200px" viewBox="0 0 200 200" enable-background="new 0 0 200 200" xml:space="preserve">
<g id="template">
</g>
<g id="browser">
</g>
<g id="artwork">
	<g>
		<path fill="#4CA619" d="M117.2,63.3c0-2.1-1.7-3.8-3.8-3.8c-2.101,0-3.801,1.7-3.801,3.8c0,2.1,1.7,3.8,3.801,3.8
			C115.5,67.1,117.2,65.4,117.2,63.3z"/>
		<path fill="#4CA619" d="M139.4,92.4c0-2.1-1.7-3.8-3.801-3.8c-2.1,0-3.8,1.7-3.8,3.8s1.7,3.8,3.8,3.8
			C137.7,96.2,139.4,94.4,139.4,92.4z"/>
		<path fill="#4CA619" d="M100,0C44.8,0,0,44.8,0,100c0,49.4,35.9,90.5,83,98.6v-65l-5.3-5.3H54.5c-0.8,0-1.5-0.3-2.1-0.899L45,120
			c-1.3,0.7-2.8,1.1-4.5,1.1c-5.4,0-9.8-4.399-9.8-9.8c0-5.399,4.4-9.8,9.8-9.8s9.8,4.4,9.8,9.8c0,1.601-0.4,3.101-1.1,4.5
			l6.6,6.601h16l-6.5-6.5c-0.6-0.601-0.9-1.301-0.9-2.101v-13l-4-4c-1.3,0.7-2.9,1.1-4.5,1.1c-5.4,0-9.8-4.4-9.8-9.8
			s4.4-9.8,9.8-9.8s9.8,4.4,9.8,9.8c0,1.6-0.4,3.1-1.1,4.5l4.8,4.8c0.6,0.6,0.9,1.3,0.9,2.1v13L81,123.2l0,0l7.1,7.1
			c0.1,0.101,0.3,0.3,0.4,0.5c0.1,0.101,0.1,0.2,0.2,0.3c0,0.101,0.1,0.101,0.1,0.2c0.1,0.101,0.1,0.3,0.1,0.4c0,0.1,0,0.1,0,0.2
			c0,0.199,0.1,0.399,0.1,0.6v67.1c2.7,0.301,5.4,0.5,8.1,0.601v-41.9V136.4V127.6L81.9,112.4C81.3,111.8,81,111.1,81,110.3v-29
			c-3.9-1.3-6.8-4.9-6.8-9.3c0-5.4,4.4-9.8,9.8-9.8s9.8,4.4,9.8,9.8c0,4.3-2.9,8-6.8,9.3V109l10,10.1v-11.6c0-0.8,0.3-1.5,0.9-2.1
			L110.4,92.8V72.6c-3.9-1.3-6.801-4.9-6.801-9.3c0-5.4,4.4-9.8,9.801-9.8c5.399,0,9.8,4.4,9.8,9.8c0,4.3-2.9,8-6.8,9.3v21.5
			c0,0.8-0.301,1.5-0.9,2.1L103,108.7v27.5V158.1V200c2.7-0.1,5.4-0.3,8.1-0.6v-63.2c0-0.101,0-0.2,0-0.2l0,0v-3.4l0,0V113.9
			c0-0.801,0.301-1.5,0.9-2.101l15-15c-0.7-1.3-1.1-2.9-1.1-4.5c0-5.4,4.399-9.8,9.8-9.8c5.399,0,9.8,4.4,9.8,9.8
			c0,5.4-4.4,9.8-9.8,9.8c-1.601,0-3.101-0.399-4.5-1.1L117.1,115.1V125.4l8.301-8.301c0.6-0.6,1.3-0.899,2.1-0.899h19.2l5.8-5.8
			c-0.7-1.301-1.1-2.9-1.1-4.5c0-5.4,4.399-9.8,9.8-9.8c5.399,0,9.8,4.4,9.8,9.8c0,5.399-4.4,9.8-9.8,9.8
			c-1.601,0-3.101-0.4-4.5-1.101l-6.7,6.7c-0.6,0.601-1.3,0.9-2.1,0.9h-19.2L117,133.9v2.199c0,0.101,0,0.2,0,0.2l0,0v62.3
			c47.1-8.1,83-49.1,83-98.6C200,44.8,155.2,0,100,0z"/>
		<path fill="#4CA619" d="M165,105.9c0-2.101-1.7-3.801-3.8-3.801c-2.101,0-3.8,1.7-3.8,3.801c0,2.1,1.699,3.8,3.8,3.8
			C163.3,109.7,165,108,165,105.9z"/>
		<path fill="#4CA619" d="M36.7,111.3c0,2.101,1.7,3.8,3.8,3.8s3.8-1.699,3.8-3.8c0-2.1-1.7-3.8-3.8-3.8S36.7,109.2,36.7,111.3z"/>
		<path fill="#4CA619" d="M52.1,88c0,2.1,1.7,3.8,3.8,3.8s3.8-1.7,3.8-3.8s-1.7-3.8-3.8-3.8S52.1,85.9,52.1,88z"/>
		<path fill="#4CA619" d="M83.9,68.1c-2.1,0-3.8,1.7-3.8,3.8s1.7,3.8,3.8,3.8s3.8-1.7,3.8-3.8S86,68.1,83.9,68.1z"/>
	</g>
</g>
</svg>
